<?xml version="1.0" encoding="utf-8"?>
<!-- Generator: Adobe Illustrator 21.0.2, SVG Export Plug-In . SVG Version: 6.00 Build 0)  -->
<svg version="1.1" id="Layer_1" xmlns="http://www.w3.org/2000/svg"  x="0px" y="0px"
	 width="54.1px" height="60px" viewBox="0 0 54.1 60" style="enable-background:new 0 0 54.1 60;" xml:space="preserve">
<style type="text/css">
	.st0{fill:#10459A;}
</style>
<desc>Created with Sketch.</desc>
<path class="st0" d="M43.6,50.4c-0.1,0-0.3,0.7-0.1,1.2c0.1,0.3,0.4,0.4,0.6,0.3c0.2-0.1,0.3-0.3,0.3-0.4
	C44.4,50.9,43.9,50.4,43.6,50.4L43.6,50.4L43.6,50.4z M41.9,42.4l0.1,0.8l-0.7-0.1V44l0.7-0.1l-0.1,0.8h0.9l-0.1-0.8l0.7,0.1v-0.9
	l-0.7,0.1l0.1-0.8H41.9L41.9,42.4L41.9,42.4z M42.4,45.4c-0.2,0-0.3,0.2-0.3,0.3c0,0.2,0.1,0.3,0.3,0.3s0.3-0.2,0.3-0.3
	C42.7,45.6,42.6,45.4,42.4,45.4L42.4,45.4z M42.4,46.8c-0.2,0-0.3,0.2-0.3,0.3c0,0.2,0.1,0.3,0.3,0.3s0.3-0.2,0.3-0.3
	C42.7,47,42.6,46.8,42.4,46.8L42.4,46.8z M42.4,48.2c-0.2,0-0.3,0.2-0.3,0.3c0,0.2,0.1,0.3,0.3,0.3s0.3-0.2,0.3-0.3
	C42.7,48.3,42.6,48.2,42.4,48.2L42.4,48.2L42.4,48.2z M43.5,48.5c0,0.2,0.1,0.3,0.3,0.3s0.3-0.2,0.3-0.3c0-0.2-0.1-0.3-0.3-0.3
	C43.6,48.2,43.5,48.3,43.5,48.5L43.5,48.5L43.5,48.5z M44.8,48.5c0,0.2,0.1,0.3,0.3,0.3c0.2,0,0.3-0.2,0.3-0.3
	c0-0.2-0.1-0.3-0.3-0.3S44.8,48.3,44.8,48.5L44.8,48.5L44.8,48.5z M42.4,50c-0.3,0-1,1.4-0.5,2.2c0.1,0.1,0.3,0.2,0.5,0.2
	c0.2,0,0.4-0.1,0.5-0.2C43.4,51.5,42.7,50,42.4,50L42.4,50z M41.3,50.4c-0.3,0-0.8,0.5-0.8,1.1c0,0.2,0.1,0.4,0.3,0.4
	c0.2,0.1,0.5,0,0.6-0.3C41.6,51.1,41.4,50.4,41.3,50.4C41.3,50.4,41.3,50.4,41.3,50.4z M40.7,48.5c0,0.2,0.1,0.3,0.3,0.3
	c0.2,0,0.3-0.2,0.3-0.3c0-0.2-0.1-0.3-0.3-0.3C40.9,48.2,40.7,48.3,40.7,48.5L40.7,48.5L40.7,48.5z M39.4,48.5
	c0,0.2,0.1,0.3,0.3,0.3s0.3-0.2,0.3-0.3c0-0.2-0.1-0.3-0.3-0.3C39.5,48.2,39.4,48.3,39.4,48.5L39.4,48.5L39.4,48.5z M39.1,48.5
	c0-0.3,0-0.5,0-0.5h2.7v-0.2l0-2l0,0v-0.6c-1.3,0.2-2.4,1.2-2.7,2.6c-0.1,0.1-0.3,0.2-0.5,0.1c-1-0.1-3-0.5-3-0.9
	c0-0.6,0.4-0.9,0.8-0.9c0.6,0,1.2,0.3,1.7-0.4c-1.9,0.1-0.4-2.6-2-3.1c0.1,0.7,0,1.9-0.2,2.5c0,0-0.5-0.6-1.2-0.8c0,0.5,0,1.5-0.3,2
	c0,0-0.6-0.6-1.3-0.8c0.6,0.9,0.6,2.2,0.4,3c0,0.2,0.1,0.5,0.6,0.5c0.7,0,3.3,0.1,4.4,0.5c0.3,0.1,0.6,0.3,0.8,0.5
	c0.1,0.3,0.4,0.8,0.8,1.1c0.2-0.6,0.8-1.2,1.3-1.2c0.1,0,0.3,0.2,0.3,0.4c0-0.2,0.4-0.8,0.7-0.8c0.3,0,0.6,0.5,0.8,0.8
	c0-0.2,0.2-0.5,0.3-0.5c0.4,0,1,0.4,1.2,1c0.2-0.2,0.9-1.2,1-1.9h-6.6C39.1,49.1,39.1,48.8,39.1,48.5L39.1,48.5L39.1,48.5z M43,45.2
	V48h2.7C45.5,46.6,44.4,45.4,43,45.2L43,45.2L43,45.2z M10.8,47.5c0.1,0,0.1,0,0.2,0c-0.2,0.3-0.2,0.4-0.1,0.5
	c0.1,0.1,0.2-0.1,0.5-0.4c0.3-0.3,0.5-0.4,0.4-0.6c-0.1-0.1-0.2-0.1-0.5,0.1c0-0.1,0-0.1,0-0.2c-0.1-0.3-0.6-0.7-0.9-0.7
	c0,0-0.1,0-0.1,0c0.1-0.2,0.1-0.3,0-0.4c-0.1-0.1-0.1,0-0.2,0.1c0-0.1,0-0.2-0.1-0.3C9.6,45,7.5,43,7,42.8c-0.3-0.1-0.4,0-0.4,0
	s-0.2,0.1,0,0.4c0.2,0.5,2.2,2.6,2.9,3c0.1,0.1,0.2,0.1,0.3,0.1c-0.1,0.1-0.2,0.2-0.1,0.2c0.1,0.1,0.2,0.1,0.4,0c0,0,0,0.1,0,0.1
	C10.1,46.9,10.5,47.4,10.8,47.5L10.8,47.5L10.8,47.5z M5.7,41.6c-0.1,0-0.2,0-0.2,0.1c-0.1,0.1-0.1,0.2-0.1,0.3
	c0,0.1,0.1,0.3,0.2,0.4c0.1,0.1,0.3,0.2,0.5,0.2c0.1,0,0.2,0,0.2-0.1c0.1-0.2,0.1-0.5-0.2-0.7C6,41.6,5.8,41.6,5.7,41.6L5.7,41.6
	L5.7,41.6z M12.3,49c0-0.2-0.4-0.6-0.9-0.6c-0.7,0-1,0.4-1,0.7c0,0.4,0.4,0.5,0.5,0.5C11.4,49.6,12.2,49.1,12.3,49L12.3,49z
	 M11.6,50.1c-0.2,0.2-0.3,0.5-0.2,0.7c0.1,0.3,0.3,0.4,0.6,0.4c0.2,0,0.5-0.1,0.6-0.3c0.3-0.4,0.3-1.4,0.2-1.5
	C12.6,49.4,12,49.7,11.6,50.1L11.6,50.1L11.6,50.1z M5.5,40.3c-0.2-0.2-0.6,0.1-0.8,0c0.1-0.6,0.5,0,0.9-0.4c0.2-0.2,0.1-0.4,0-0.5
	c-0.2,0.2-0.5,0.1-0.5,0c0.5-1.1-0.4-2.4-1.3-2.2c0.2,0.2,0.2,1,0.1,1.3C4.2,38.6,4,39.2,3.6,39c-0.2-0.1-0.7-0.7-0.2-1.2
	c0-0.2-0.3-0.2-0.6,0.2c0.2-0.7-1.1-0.5-1.4-0.3c-0.2,0.3-0.3,1.6,0.3,1.4c-0.4,0.3-0.3,0.6-0.2,0.6c0.4-0.5,1-0.1,1.1,0.2
	c0.2,0.4-0.4,0.6-0.6,0.3c-0.2,0.1-1,0.1-1.2-0.1c-0.1,0.9,1.1,1.8,2.2,1.3c0.1,0,0.2,0.3,0,0.5c0.1,0.1,0.4,0.2,0.5,0
	c0.4-0.4-0.2-0.9,0.4-1c0.1,0.2-0.1,0.7,0.1,0.9c0.3,0.3,0.7-0.3,1.1-0.3C5.2,41,5.8,40.6,5.5,40.3L5.5,40.3L5.5,40.3z M2.2,38.9
	c0,0-0.2-0.1,0-0.4c0.3-0.3,0.4-0.1,0.4-0.1s0.2,0.5,0.3,0.8C2.7,39.1,2.2,38.9,2.2,38.9L2.2,38.9L2.2,38.9L2.2,38.9z M4.2,40.4
	c-0.1,0-0.4,0.3-0.6,0.1l-0.7-0.7l0.3-0.4l0.3-0.4l0.7,0.7C4.5,40,4.2,40.3,4.2,40.4L4.2,40.4L4.2,40.4z M15.7,51c0-0.1,0-0.2,0-0.2
	c0,0,0,0,0,0c0,0-0.1,0.1-0.2,0.2c-0.1,0.1-0.2,0.2-0.3,0.3c-0.1,0.1-0.2,0.2-0.3,0.3c-0.1,0.1-0.2,0.2-0.2,0.2c0,0,0,0,0,0
	c0,0,0.1,0.1,0.1,0.1c0.1,0,0.3,0,0.6-0.4C15.6,51.3,15.7,51.1,15.7,51L15.7,51L15.7,51z M15.7,51.9c-0.2,0.2-0.3,0.3-0.4,0.3
	c0.1,0.1,0.2,0.2,0.4,0.2c0.1,0,0.2,0,0.3-0.1c0.2-0.4,0-0.7-0.1-0.8C16,51.5,15.9,51.7,15.7,51.9L15.7,51.9L15.7,51.9z M13.4,49.9
	c-0.1,0.1-0.4,0.8-0.3,1.3c0,0.2,0.2,0.3,0.3,0.3c0.2,0,0.3-0.1,0.3-0.3C13.8,50.7,13.5,50,13.4,49.9L13.4,49.9L13.4,49.9z
	 M13.2,47.9c0,0,1.3,1.2,1.7,1.6c0.1,0.1,0.2,0.1,0.4,0c0.1,0,0.2-0.1,0.3-0.1c1.3-0.5,3.4-0.5,4.2-0.5c0.5,0,0.6-0.3,0.6-0.5
	c-0.2-0.7-0.2-2.1,0.4-3c-0.7,0.2-1.3,0.8-1.3,0.8c-0.2-0.5-0.3-1.5-0.3-2c-0.6,0.2-1.2,0.8-1.2,0.8c-0.2-0.6-0.3-1.8-0.2-2.5
	c-1.5,0.5-0.1,3.2-2,3.1c0.5,0.8,1.1,0.4,1.7,0.4c0.4,0,0.9,0.3,0.8,0.9c-0.1,0.4-2.5,1-3.5,1c-0.7,0-1.2-0.2-1.5-0.7
	c-0.2-0.2-0.3-0.3-0.5-0.3c-0.2,0-0.5,0.3-0.5,0.9c0,0.4,0.2,1.3,0.6,1.3C13.4,49,13.4,48.4,13.2,47.9L13.2,47.9L13.2,47.9z
	 M14.8,51c0.2-0.2,0.3-0.4,0.3-0.6c-0.1-0.2-0.6-0.8-1.3-1.4c0,0.1-0.1,0.3-0.1,0.4c0.5,0.6,0.6,1.3,0.5,1.8c0.1,0,0.1,0.1,0.1,0.1
	C14.5,51.3,14.7,51.1,14.8,51L14.8,51L14.8,51z M11.6,47.7c0,0-0.1,0.1-0.1,0.2c0.1,0,0.3,0,0.5,0.1c0-0.1,0-0.3,0-0.5
	C11.7,47.5,11.6,47.7,11.6,47.7L11.6,47.7L11.6,47.7z M34.3,51.9c0.4-0.2,0.7-0.7,0.8-1.2c-0.3,0.1-0.6,0.2-0.9,0.2
	c-1,0-2.2-0.5-3.3-1c0,0-0.2,0.2-0.6,0.2c1.1,0.3,3.3,1.6,3.5,2.3c0.1,0.5-0.2,0.7-0.2,0.7c-0.5-0.8-1.7-2-3.4-2.6
	c0,0.3-0.1,0.5-0.1,0.5s-0.3,0.1-1.1,0c0.6,0.5,2.3,2.4,2.5,3.8c0.1,0.9-0.5,1-0.5,1c-0.1-1.4-0.8-2.9-2.2-4.4c0,0-0.2,0.3-0.5,0.5
	c0,0-0.5-0.1-0.9-0.4c0.2,1.9,0.3,4.3,0.2,5C27.3,57,27,57.2,27,57.2s-0.3-0.2-0.4-0.7c-0.1-0.7,0-3.2,0.2-5
	c-0.4,0.3-0.9,0.4-0.9,0.4c-0.3-0.2-0.5-0.5-0.5-0.5c-1.3,1.5-2.1,2.9-2.2,4.4c0,0-0.7,0-0.5-1c0.2-1.4,1.8-3.3,2.5-3.8
	c-0.7,0.1-1.1,0-1.1,0s-0.1-0.2-0.1-0.5c-1.7,0.6-2.9,1.9-3.4,2.6c0,0-0.3-0.2-0.2-0.7c0.2-0.8,2.4-2,3.5-2.3
	c-0.4,0-0.6-0.2-0.6-0.2c-1.1,0.5-2.3,1-3.3,1c-0.4,0-0.7-0.1-0.9-0.2c0.1,0.5,0.4,1,0.8,1.2c-1.5,1.1-0.6,3.5-2.6,3.1
	c1.1,2.1,3.4,2.3,3.4,2.3c-0.5-1.1,0.1-4.5,3.1-6c-1.9,1.8-2.7,4.1-2.2,5.7c0.5,1.4,1.9,2,3,2.1c-0.8-2.4-0.3-5.1,1.3-6.9
	C25.2,54,24.2,59,27,60c2.8-1,1.8-6,1.1-7.9c1.6,1.7,2.1,4.5,1.3,6.9c1.1,0,2.6-0.6,3-2.1c0.5-1.6-0.4-3.8-2.2-5.7
	c3,1.5,3.6,4.9,3.1,6c0,0,2.3-0.2,3.4-2.3C34.8,55.4,35.8,52.9,34.3,51.9L34.3,51.9L34.3,51.9z M27.3,10.2c0-0.1-0.1-0.3-0.3-0.3
	c-0.1,0-0.3,0.1-0.3,0.3c0,0.1,0.1,0.3,0.3,0.3C27.2,10.4,27.3,10.3,27.3,10.2L27.3,10.2z M28.6,10.2c0-0.1-0.1-0.3-0.3-0.3
	c-0.1,0-0.3,0.1-0.3,0.3c0,0.1,0.1,0.3,0.3,0.3C28.5,10.4,28.6,10.3,28.6,10.2L28.6,10.2z M26.6,3.2c0,0.3,0.2,0.5,0.5,0.5
	c0.3,0,0.5-0.2,0.5-0.5c0-0.3-0.2-0.5-0.5-0.5C26.8,2.7,26.6,2.9,26.6,3.2L26.6,3.2L26.6,3.2z M26.7,2.1h0.7l-0.1-0.8L28,1.4V0.7
	l-0.7,0.1L27.4,0h-0.7l0.1,0.8l-0.7-0.1v0.6l0.7-0.1L26.7,2.1L26.7,2.1L26.7,2.1z M26,10.2c0-0.1-0.1-0.3-0.3-0.3
	c-0.1,0-0.3,0.1-0.3,0.3c0,0.1,0.1,0.3,0.3,0.3C25.9,10.4,26,10.3,26,10.2L26,10.2z M24.4,11.2c0.1,0,0.2,0,0.2,0h4.8
	c0.1,0,0.2,0,0.2,0c0.2-0.1,0.2-0.2,0.3-0.4h-5.9C24.2,11,24.2,11.1,24.4,11.2L24.4,11.2L24.4,11.2z M24.7,10.2
	c0-0.1-0.1-0.3-0.3-0.3c-0.1,0-0.3,0.1-0.3,0.3c0,0.1,0.1,0.3,0.3,0.3C24.5,10.4,24.7,10.3,24.7,10.2L24.7,10.2L24.7,10.2z
	 M29.9,10.2c0-0.1-0.1-0.3-0.3-0.3c-0.1,0-0.3,0.1-0.3,0.3c0,0.1,0.1,0.3,0.3,0.3C29.8,10.4,29.9,10.3,29.9,10.2L29.9,10.2
	L29.9,10.2z M30.2,9.5C30.4,9.4,31,8.1,31,6.7c0-1.2-1.5-1.8-2.4-1.9c-0.1,1.7-0.8,4.3-1.6,4.3c-0.8,0-1.5-2.6-1.6-4.3
	c-0.9,0-2.4,0.7-2.4,1.9c0,1.3,0.7,2.6,0.8,2.8H30.2L30.2,9.5L30.2,9.5z M27,8.4c0.4,0,0.9-1.7,1.1-3.3c0-0.3-0.4-0.8-1.1-0.8
	c-0.7,0-1.1,0.5-1.1,0.8C26.1,6.6,26.7,8.4,27,8.4L27,8.4L27,8.4z M14.2,17c-0.8,1.1,0.3,2.3,0.4,2.3c0,0.1,0.1,0,0.1,0
	c0-0.1,0.6-1.7,3.8-0.8c0.1,0,0.1,0,0,0C18,17.9,17.2,16.8,17,16C17,16,15,15.9,14.2,17L14.2,17L14.2,17z M16,16.7
	c0-0.3,0.4-0.4,0.7-0.4c0,0,0.1,0.3,0.2,0.5C16.6,16.7,16.3,16.7,16,16.7C16,16.7,16,16.7,16,16.7z M17.7,15.3
	c-0.2,0-0.3,0.1-0.2,0.4c0.8,2.5,2.8,3.1,3.6,4.2c0,0,0-0.3,0.4-1.2c0.3,0.4,0.9,1.2,1.4,1.3c-0.1-0.2-0.2-1.1-0.1-1.7
	c1.1,0.9,2.4,1.1,3.1,0.6c-0.6,0-1.4-0.6-1.8-1.2c0.5,0.1,1.3,0,1.5-0.2c-0.3-0.1-0.8-0.4-1-0.7c0.4,0,1.2-0.3,1.5-0.8
	c-0.3,0.1-0.8-0.1-1.2-0.2c0.2-0.1,0.9-0.8,1-1.4c-0.9,0.4-2.3,0.9-4.3,0.9C21.5,15.3,17.8,15.3,17.7,15.3L17.7,15.3L17.7,15.3z
	 M20,16.5c-0.6,0.2-0.9,0.5-0.9,0.5s-0.3-0.5-0.4-0.6c-0.1-0.1-0.1-0.3,0.2-0.3h1.8C20.7,16.2,20.6,16.3,20,16.5L20,16.5L20,16.5z
	 M13.8,20.6c0.2,0.3,0.7,1,1.9,0.3c1.2-0.7,1.8-1.1,1.8-1.1s-0.2,0.4,0,0.8c0,0,0,0,0,0c0.1-0.3,1.1-1.1,2.4-1.2
	c-0.5-0.4-1-0.8-1-0.8c-0.6,0.1-1.6,0.5-3,1.4C14.5,21,13.9,20.6,13.8,20.6C13.8,20.6,13.8,20.6,13.8,20.6L13.8,20.6L13.8,20.6z
	 M30.4,49.5c0.2-0.1,0.4-0.2,0.5-0.3c-0.9,0-1.6-0.8-1.9-1.3c-0.3,0.5-0.8,0.9-0.8,0.9c-0.4-0.1-0.9-0.5-1.1-0.8
	c-0.2,0.3-0.7,0.7-1.1,0.8c0,0-0.5-0.4-0.8-0.9c-0.3,0.5-1,1.3-1.9,1.3c0.1,0.1,0.3,0.2,0.5,0.3c0.1,0,0.3,0.1,0.4,0.1
	c0.2,0,0.3,0,0.5-0.1c-0.1,0.3-0.1,0.7-0.1,1c0,0,0.5,0,1-0.1c0,0.3,0.2,0.7,0.4,0.9c0,0,0.1,0.1,0.1,0.1c0.3,0,0.9-0.3,1-0.5
	c0.1,0.2,0.8,0.5,1,0.5c0.1,0,0.1-0.1,0.1-0.1c0.2-0.2,0.4-0.6,0.4-0.9c0.2,0.1,0.5,0.2,0.8,0.2c0.1,0,0.1,0,0.2,0
	c0.1-0.3,0-0.7-0.1-1c0.1,0.1,0.3,0.1,0.5,0.1C30.1,49.5,30.3,49.5,30.4,49.5L30.4,49.5L30.4,49.5z M21.5,30.3
	c-0.2,0-0.3,0.1-0.3,0.3v11c0,1,0.4,1.6,1.2,1.6l2,0c1.4,0,2.2,0.5,2.6,1.1c0.3-0.6,1.3-1.1,2.6-1.1l2,0c0.8,0,1.2-0.5,1.2-1.6v-11
	c0-0.2-0.1-0.3-0.3-0.3L21.5,30.3L21.5,30.3L21.5,30.3z M23.4,40.6c0,0.2,0.3,0.7,0.7,0.5c0,0.1,0,0.3,0.1,0.5
	C23.5,41.8,23.1,41.2,23.4,40.6L23.4,40.6L23.4,40.6z M30.9,36.9c-0.1-0.1-0.2-0.2-0.3-0.4c-0.1-0.1-0.2-0.2-0.3-0.2
	c-0.3,0-0.6,0.1-0.7,0.3c0,0,0,0,0,0c0.2,0,0.3,0,0.5,0c0.1,0,0.3,0,0.4,0.1c0.1,0.1,0.2,0.2,0.2,0.3c0,0.4,0.3,1.2,0.3,1.4
	c0,0.1-0.1,0.1-0.2,0.6c-0.1,0.1-0.4-0.3-0.4-0.4c0.2-0.2,0.2-0.4,0.2-0.6c0-0.1-0.1-0.4-0.2-0.5c-0.1-0.2-0.2-0.2-0.4-0.2
	c-0.7,0.2-0.9-0.1-1.6,0.2l0.8,1.3c0-0.1,0-0.3-0.2-0.4c0-0.1,0.3-0.2,0.4-0.1c0.1,0.2,0.4,0.4,0.6,0.4c0.4,0.1,0.3,0.6,1.4,0.8
	c-0.1,0.1-0.4,0.1-0.5,0c0.1,0.1,0.2,0.2,0.3,0.3c-0.2,0.2-0.6-0.2-0.6,0.2c0.1,0,0.2-0.1,0.3,0c0.2,0.1,0.5,1.2-0.2,1.7
	c0.1,0,0.3,0,0.5,0c0.1,0,0.2,0.1,0.2,0.2c0.1,0,0.1,0.1,0.1,0.2c-0.1,0-0.2,0-0.2,0c0,0.1,0,0.2,0,0.2c-0.1,0-0.1,0-0.2-0.1
	c-0.1,0-0.4,0-0.5,0c-0.2,0.1-0.4,0.1-0.7,0.1c-0.1,0-0.3,0-0.3-0.2c0-0.1,0-0.1,0.1-0.2c-0.1-0.1-0.3,0-0.5,0c-0.3,0-0.4,0-0.5-0.1
	c0.3-0.3,0.1-0.9-0.3-0.9c0.3,0.3,0.3,0.9-0.1,1c0.1,0,0.2,0.1,0.2,0.2c0.1,0.1,0.1,0.2,0.1,0.2c-0.1-0.1-0.2-0.1-0.3-0.1
	c0,0,0,0.1-0.1,0.2c0,0-0.1-0.1-0.1-0.1c-0.1-0.1-0.9,0.1-0.9,0c0-0.1,0.2-0.2,0.4-0.3c-0.5-0.2-0.9-1.1-1.7-1.3
	c-0.3-0.1-0.8,0.1-0.8,0.5c0,0.2,0.2,0.4,0.4,0.4c0.2,0,0.3-0.1,0.3-0.2c0,0,0,0-0.1,0c-0.1,0.1-0.2,0.1-0.3,0
	c-0.1-0.1-0.1-0.2,0-0.3c0.1-0.1,0.2-0.1,0.3-0.1c0.3,0,0.5,0.1,0.7,0.3c0.1,0.1,0.1,0.2,0.1,0.3c0,0.5-0.5,0.6-0.8,0.6
	c-0.7,0-1.2-0.5-1.2-1.1c0-0.1,0-0.1,0-0.2c0.1-0.7,0.7-1,1.2-1c-0.1-0.2-0.2-0.4-0.4-0.6c-0.1-0.1-0.1-0.1,0-0.2
	c0.1-0.1,0.2-0.3,0.2-0.4c0,0,0-0.1,0-0.1c-0.3,0.2-0.6,0.4-1.1,0.6c-0.2,0.1-0.2,0.2-0.3,0.4c0,0.2,0,0.4,0,0.6c0,0,0,0.1,0.1,0.1
	c0.1,0.2,0.2,0.3,0.2,0.5c0,0.1-0.5,0.1-0.5,0c0-0.4-0.2-0.5-0.2-0.7c0.1-0.4,0.1-0.7,0-1.1c0-0.1,0-0.2,0.1-0.2
	c0.1-0.1,0.2-0.2,0.3-0.2c0.2-0.2,0.3-0.4,0.3-0.7c0,0,0-0.1,0-0.1c-0.1-0.3-0.2-0.5-0.2-0.8c0-0.3-0.4-0.3-0.4,0
	c0,0.1,0.1,0.2,0.1,0.3c0.4,1-0.3,1.7-1.1,1.7c0.8-0.3-0.2-1.3-0.2-2.1c0-0.5,0.4-0.8,0.8-0.8c0.5,0,0.8,0.3,0.9,0.4
	c0.2-0.4,1-0.5,1.3-0.5c0-0.2,0-0.4,0.1-0.6c0,0,0,0,0,0c0-0.1-0.1-0.2-0.1-0.3c-0.2,0.3-0.3,0.6-0.3,0.8c-0.9,0-1.3-0.4-1.5-0.5
	c0-0.1,0.2-0.5,0.4-0.8c-0.2,0.2-0.4,0.4-0.5,0.7c-0.1-0.1-0.3-0.2-0.4-0.2c0.2-0.4,0.5-0.7,0.8-1.1c-0.5,0.2-0.9,0.7-1,1
	c-0.1,0-0.3,0-0.4,0c0.5-0.6,0.7-1.8,1.9-2.1c-0.3,1.1,0.4,1.6,0.9,1.3c-0.1,0-0.1,0-0.1,0c-0.9-0.2-0.4-1.5-0.6-1.8
	c-0.1-0.1-0.1-0.2-0.1-0.3c0,0,0-0.1,0-0.1L24,30.8c-0.1-0.1,0.1-0.2,0.2-0.1l0.5,0.8c0,0,0,0.1,0,0.1c0.2,0,0.2,0.2,0.3,0.3
	c0,0,0,0.1,0,0.1c0,0,0,0.1,0,0.1c-0.1,0.1-0.1,0.2,0,0.3c0.1,0.2,3.1,5.2,3.1,5.2c-0.7,0.3-1.8,0.3-2.2,0.3
	c-0.1,0.2-0.2,0.4-0.3,0.5c0.2-0.1,0.3-0.2,0.4-0.4c0.1,0,0.3,0.1,0.5,0.1c-0.1,0.3-0.3,0.5-0.5,0.7c-0.1,0.1-0.2,0.2-0.2,0.4
	c0.1,0.2,0.4,0.6,0.5,0.8c0.1,0,0.3,0.1,0.5,0.1c0.1,0.2,0.4,0.4,0.8,0.3c-0.8,0-0.7-0.8-0.5-1.2c0,0.4,0.2,0.7,0.4,0.7
	c-0.3-0.3-0.3-1,0-1.4c0,0.6,0.2,1,0.5,1.1c-0.4-0.3-0.6-1.1,0-1.7c0,1.5,1.4,1.2,1.5,2.9c0.5,0,0.5-0.7,0.2-0.8
	c-0.2-0.1-0.3-0.2-0.4-0.3c0-0.1-0.1-0.2-0.1-0.2c-0.1-0.4-0.6-0.4-0.6-0.5c0,0,0.1-0.1,0.2-0.1l-0.8-1.2l0-0.1c0.1,0,0.1-0.1,0-0.2
	c0,0-2.9-4.9-3-4.9c0.3,0,0.5,0,0.8,0.1c-0.1-0.1-0.1-0.2-0.1-0.2c0-0.1,0-0.1,0.1-0.2c0.1-0.1,0.1-0.1,0.2-0.2
	c0.1-0.2,0.4-0.3,0.7-0.3c0.4,0.1,0.5,0.5,0.2,0.7c-0.1,0.3-0.3,0.3-0.4,0.4c0.1,0,0.6,0.4,0.6,0.6c-0.1,0.3-0.2,0.8-0.1,1.1
	c0.1-1.3,0.9-1.9,1.6-1.9c0.2,0,0.4,0,0.5,0.1c0.1,0,0.2,0.1,0.3,0.1c0.1,0.1,0.2,0.2,0.3,0.3c0.1,0.2,0.3,0.3,0.5,0.3
	c-0.1,0.1-0.2,0.2-0.2,0.3c-0.1,0.1-0.1,0.1-0.1,0.2c0,0.2-0.1,0.3-0.2,0.5c0,0,0,0,0,0.1c-0.1,0.2-0.2,0.5-0.2,0.7
	c0,0.1,0,0.1-0.1,0.1c-0.1,0-0.2,0-0.2-0.1c-0.1-0.1-0.2-0.2-0.1-0.4c0-0.1,0-0.3,0-0.4c0-0.1-0.1-0.3-0.1-0.4
	c-0.2-0.1-0.6,0.4-0.3,0.7c0.2,0.3,0.4,0.8,0.4,1c0,0-0.2,0.1-0.4,0.1c-0.8-0.1-1.4-0.7-1.5-1.2c0,0.8,0.7,1.5,1.7,1.4
	c0,0.2,0.2,0.3,0.4,0.3c0-0.1,0-0.4,0-0.6c0-0.1,0-0.1,0.1-0.1c0.2-0.1,0.5,0,0.8-0.1c0.2-0.1,0.3,0,0.5,0.2
	c0.1,0.2,0.3,0.4,0.5,0.6c0.1,0.1,0.1,0.1,0.2,0.2c0.1,0.1,0.1,0.2,0.1,0.3c0,0.2,0,0.6,0,0.6c0,0.1-0.4,0-0.5-0.1
	C30.9,37.5,31.1,37.1,30.9,36.9L30.9,36.9L30.9,36.9z M37.1,16c-0.2,0.9-0.9,1.9-1.6,2.4c-0.1,0.1,0,0.1,0,0
	c3.3-0.9,3.8,0.8,3.8,0.8c0,0.1,0,0.1,0.1,0c0.1-0.1,1.1-1.3,0.4-2.3C39.1,15.9,37.1,16,37.1,16L37.1,16L37.1,16z M37.2,16.8
	c0.1-0.2,0.2-0.5,0.2-0.5c0.3,0,0.7,0.1,0.7,0.4C37.8,16.7,37.5,16.7,37.2,16.8L37.2,16.8L37.2,16.8z M40.3,20.6
	C40.3,20.6,40.3,20.6,40.3,20.6c-0.1,0-0.7,0.4-2.1-0.5c-1.4-0.9-2.5-1.3-3-1.4c0,0-0.5,0.4-1,0.8c1.3,0.1,2.3,0.9,2.4,1.2
	c0,0,0,0,0,0c0.1-0.4,0-0.8,0-0.8s0.6,0.4,1.8,1.1C39.5,21.6,40.1,20.9,40.3,20.6L40.3,20.6L40.3,20.6z M29.3,15.8
	c-0.3,0.2-0.8,0.3-1.2,0.2c0.2,0.5,1.1,0.8,1.5,0.8c-0.3,0.3-0.7,0.6-1,0.7c0.2,0.2,0.9,0.3,1.5,0.2c-0.4,0.6-1.2,1.3-1.8,1.2
	c0.7,0.5,2,0.4,3.1-0.6c0.1,0.6,0,1.5-0.1,1.7c0.4-0.1,1.1-0.9,1.4-1.3C33,19.6,33,20,33,20c0.8-1.1,2.9-1.7,3.6-4.2
	c0.1-0.2,0-0.4-0.2-0.4c-0.1,0-3.8,0-3.8,0c-2.1,0-3.5-0.4-4.3-0.9C28.4,15,29.1,15.7,29.3,15.8L29.3,15.8L29.3,15.8z M35.2,16.1
	c0.3,0,0.3,0.2,0.2,0.3C35.3,16.6,35,17,35,17s-0.3-0.3-0.9-0.5c-0.6-0.2-0.7-0.3-0.7-0.4H35.2L35.2,16.1z M21.7,19.9
	c-0.1,0.3-0.2,0.7-0.1,1.2c0.4,0.8,0.6,2.3,0.4,3.2c0.6-0.8,0.9-1.8,1-2.5c0.3,0.4,0.8,0.9,1.1,1.3c0.1-0.4,0.1-1,0.2-1.4
	c0.5,0.4,1.4,1,2,1.2c-0.4-1.8-1.2-2.9-1.2-2.9c-0.6,0.1-1.6-0.1-2.1-0.5c0.1,0.7,0.5,1.4,0.5,1.4C22.8,20.8,22.1,20.5,21.7,19.9
	L21.7,19.9L21.7,19.9z M32.4,19.9c-0.4,0.6-1.1,0.9-2.1,0.8c0,0,0.4-0.7,0.5-1.4c-0.4,0.4-1.4,0.6-2.1,0.5c0,0-0.7,1.1-1.2,2.9
	c0.6-0.2,1.6-0.7,2-1.2c0.1,0.4,0.2,0.9,0.2,1.4c0.3-0.4,0.8-0.9,1.1-1.3c0.2,0.8,0.4,1.7,1,2.5c-0.1-0.9,0.1-2.4,0.4-3.2
	C32.6,20.6,32.5,20.2,32.4,19.9L32.4,19.9L32.4,19.9z M24.2,25.6c0.4,0.6,0.7,1.3,0.8,1.9c0.3-0.4,0.7-1.1,1-2
	c0.3,0.4,0.8,1.2,1.1,1.8c0.3-0.6,0.8-1.4,1.1-1.8c0.2,0.9,0.6,1.6,1,2c0.1-0.6,0.4-1.3,0.8-1.9c0.3,1.1,1.3,2.2,2.4,2.3
	c-0.7-0.9-0.7-2.5-0.7-3.1c-0.5-0.7-0.8-1.4-0.9-1.9c-0.3,0.3-0.8,0.9-1.3,1.7c0,0,0-0.9-0.2-2c-0.5,0.4-1.3,0.7-1.7,0.8
	c-0.3,0.5-0.4,0.8-0.5,1.4c-0.1-0.6-0.2-0.9-0.5-1.4c-0.4-0.1-1.3-0.4-1.7-0.8c-0.2,1.1-0.2,2-0.2,2c-0.4-0.7-0.9-1.3-1.3-1.7
	c-0.1,0.5-0.5,1.1-0.9,1.9c0.1,0.5,0,2.1-0.7,3.1C22.8,27.8,23.9,26.7,24.2,25.6L24.2,25.6L24.2,25.6z M14.2,39c0.6-0.4,1-1.1,1.4-2
	c-0.3,0.1-0.6,0.2-1,0.3c-0.4,0.7-0.9,0.4-0.9,0.3c0.1-0.1,0.2-0.3,0.3-0.5c-0.2-0.3-0.3-0.7-0.4-1c-0.5,1.1-1.5,2.2-2.3,2.7
	C11.9,39.4,13.3,39.5,14.2,39L14.2,39L14.2,39z M16.1,37.1c-0.4,0.9-0.3,2.3,1.1,2.4c-0.1-1,0.3-1.9,0.8-2.4
	c-0.4,0.1-1.1,0.6-1.1,0.6s-0.1,0.2-0.1,0.5c-0.3,0.1-0.5-0.2-0.3-0.6C16.5,37.6,16.3,37.4,16.1,37.1L16.1,37.1L16.1,37.1z
	 M9.3,38.1c0.2,0,0.4,0,0.6-0.1c1.3-0.3,2.6-1.5,3.4-2.4c-0.4,0.1-0.9,0.2-1.4,0.3c0,0-0.3,0.4-0.6,0.5c-0.1,0.1-0.3,0.1-0.4,0.1
	c-0.4,0-0.5-0.3-0.5-0.3s0.6-0.3,1-0.7c-0.1-0.3-0.1-0.7-0.1-1.2c-1.1,1.1-3,2.1-4.4,2.3C7.1,37.2,8.1,38.1,9.3,38.1L9.3,38.1
	L9.3,38.1z M6.6,35.9c0.1,0,0.1,0,0.2,0c1.4-0.1,3-1,4.1-1.8c-0.3,0.1-1.2,0.1-1.7,0c-0.1,0.1-0.8,0.5-1.3,0.6
	c-1,0.1-1.1-0.5-1.1-0.5c0.6-0.1,1.4-0.3,2.1-0.6c0.1-0.5,0.2-1,0.3-1.3c-1.5,0.8-4,1.4-5.5,1.5C4,34.4,5.1,35.9,6.6,35.9L6.6,35.9
	L6.6,35.9z M6.8,30.9c0.2-0.4,0.5-0.8,0.9-1.2c-1.2,0.3-2.8,0.4-3.6,0.4c-1,0-1.9-0.1-2.5-0.2c0,1,1,2.7,2.8,2.8c0.1,0,0.2,0,0.3,0
	c1.1,0,3-0.5,4.2-0.9c-0.9-0.1-1.8-0.3-2-0.4c-0.5,0.1-1.6,0.3-1.9,0.3c-0.8,0-0.9-0.7-0.9-0.7S5.6,31.2,6.8,30.9L6.8,30.9L6.8,30.9
	z M2.4,29.1c0.7,0.2,1.8,0.3,3,0.3c0.7,0,1.5-0.1,2.2-0.2c-0.7-0.2-1.5-0.6-2.1-0.9c-0.7,0-1.6,0-2.2-0.2c-0.9-0.3-0.9-0.9-0.9-1
	c0.8,0.3,2.1,0.6,3,0.7c0.4-0.3,0.9-0.7,1.5-1.1c-2.3,0-5.2-0.9-6.8-1.7C-0.3,28,1.7,28.9,2.4,29.1L2.4,29.1L2.4,29.1z M7.4,22.8
	c-0.4-0.7-0.7-1.6-0.7-2.4c-1.1-0.8-2.3-1.9-3-3.1c-0.4-0.7-0.3-1.3,0-1.5c0.2,0.8,1.7,2.9,3,4c0-0.7,0.1-1.5,0.3-2.1
	c-1.5-1.6-3.2-4.4-3.6-5.4c-0.5,0.4-1.3,1.3-1.4,2.7c-0.2,1.4,0.2,2.8,1.3,4.1C4,20.2,5.8,21.8,7.4,22.8L7.4,22.8L7.4,22.8z M7,26.3
	c-1-0.7-1.8-1.3-2.1-1.9c-0.9-0.3-2-0.9-2.5-1.3c-0.8-0.6-0.5-1.2-0.4-1.3C2.5,22.4,4,23.4,5,23.8c0.6-0.3,1.5-0.4,2.4-0.5
	c-2.6-1-5.3-2.9-6.8-4.7c-0.3,0.6-1.5,3.2,0.7,5.4C2.5,25.2,5,26,7,26.3L7,26.3L7,26.3z M40.4,36.1c-0.1,0.3-0.3,0.7-0.4,1
	c0.1,0.2,0.2,0.3,0.3,0.5c0,0.1-0.5,0.4-0.9-0.3c-0.4-0.1-0.7-0.2-1-0.3c0.4,0.9,0.8,1.6,1.4,2c0.9,0.6,2.4,0.5,2.9-0.2
	C41.9,38.3,40.9,37.2,40.4,36.1L40.4,36.1L40.4,36.1z M38,37.1c-0.1,0.3-0.3,0.5-0.3,0.5c0.1,0.5,0,0.7-0.3,0.6
	c0-0.3-0.1-0.5-0.1-0.5s-0.7-0.5-1.1-0.6c0.5,0.4,0.9,1.4,0.8,2.4C38.3,39.4,38.4,38,38,37.1C38,37.1,38,37.1,38,37.1z M42.7,35.5
	c0.4,0.4,1,0.7,1,0.7s-0.2,0.3-0.5,0.3c-0.1,0-0.3,0-0.4-0.1c-0.3-0.1-0.6-0.5-0.6-0.5c-0.5,0-0.9-0.1-1.4-0.3c0.8,1,2,2.1,3.4,2.4
	c0.2,0,0.4,0.1,0.6,0.1c1.2,0,2.2-0.9,2.5-1.5c-1.4-0.2-3.4-1.2-4.4-2.3C42.9,34.8,42.8,35.2,42.7,35.5L42.7,35.5z M45.2,33.6
	c0.7,0.3,1.4,0.5,2.1,0.6c0,0-0.1,0.6-1.1,0.5c-0.5-0.1-1.2-0.5-1.3-0.6c-0.4,0.1-1.3,0-1.7,0c1.1,0.8,2.7,1.6,4.1,1.8
	c0.1,0,0.1,0,0.2,0c1.4,0,2.6-1.5,2.9-2.2c-1.5,0-3.9-0.6-5.5-1.5C45,32.6,45.2,33.1,45.2,33.6L45.2,33.6L45.2,33.6z M46.4,29.8
	c0.3,0.4,0.6,0.8,0.9,1.2c1.2,0.3,2.7,0.2,2.7,0.2s-0.1,0.6-0.9,0.7c-0.4,0-1.5-0.2-1.9-0.3c-0.2,0.1-1.1,0.3-2,0.4
	c1.3,0.4,3.1,0.9,4.2,0.9c0.1,0,0.2,0,0.3,0c1.8-0.2,2.8-1.9,2.8-2.8C52,30.1,51,30.2,50,30.2C49.2,30.2,47.7,30.1,46.4,29.8
	L46.4,29.8L46.4,29.8z M54.1,25c-1.6,0.9-4.5,1.8-6.8,1.7c0.6,0.4,1.1,0.8,1.5,1.1c1-0.1,2.3-0.4,3-0.7c0,0.1,0,0.7-0.9,1
	c-0.6,0.2-1.5,0.2-2.2,0.2c-0.6,0.4-1.4,0.7-2.1,0.9c0.6,0.1,1.4,0.2,2.2,0.2c1.2,0,2.3-0.1,3-0.3C52.4,28.9,54.4,28,54.1,25
	L54.1,25L54.1,25z M50.4,15.8c0.3,0.2,0.4,0.8,0,1.5c-0.7,1.2-1.9,2.3-3,3.1c0,0.8-0.4,1.7-0.7,2.4c1.6-1,3.4-2.6,4.2-3.7
	c1.1-1.4,1.5-2.8,1.3-4.1c-0.2-1.3-1-2.3-1.4-2.7c-0.4,1.1-2.1,3.8-3.6,5.4c0.2,0.6,0.3,1.4,0.3,2.1C48.7,18.7,50.2,16.6,50.4,15.8
	L50.4,15.8z M49.1,23.8c1-0.4,2.5-1.4,3.1-2.1c0.1,0.1,0.3,0.7-0.4,1.3c-0.6,0.5-1.7,1-2.5,1.3c-0.4,0.6-1.1,1.2-2.1,1.9
	c2-0.3,4.4-1.1,5.6-2.3c2.2-2.2,1-4.9,0.7-5.4c-1.4,1.8-4.2,3.7-6.8,4.7C47.6,23.4,48.5,23.6,49.1,23.8L49.1,23.8L49.1,23.8z
	 M43.1,20.8c-0.8,1.9-3,3.7-4.3,4.5c-0.6,0.4-0.4,1.1-0.2,1.5c1.9,3.1-1.5,5.4-4.6,3.9c0.7,0,1.3-0.6,1.4-1.1
	c-0.2,0.2-1.1,0.1-1.3-0.2c0.4-0.2,0.5-0.4,0.5-0.6c-0.5,0.3-1.5,0.3-1.8-0.2c-1.6,0-2.7-1.3-2.8-1.7c-0.1,0.4-0.3,1.1-0.4,1.7
	c-0.4-0.3-1.2-1-1.6-1.9c-0.4,0.6-0.8,1.3-1,2.1c-0.2-0.8-0.6-1.5-1-2.1c-0.4,0.9-1.1,1.6-1.6,1.9c-0.1-0.7-0.3-1.3-0.4-1.7
	c-0.1,0.4-1.2,1.6-2.8,1.7c-0.3,0.5-1.3,0.5-1.8,0.2c0,0.2,0.1,0.4,0.5,0.6c-0.3,0.2-1.1,0.3-1.3,0.2c0.1,0.5,0.8,1.1,1.4,1.1
	c-3.1,1.5-6.5-0.8-4.6-3.9c0.2-0.3,0.4-1.1-0.2-1.5c-1.4-0.9-3.5-2.6-4.3-4.5c-0.1,0.8,0,2.8,0.8,4c-0.6,0.2-1.4,0.6-2,1
	c0.3,0.4,1.1,1,1.7,1.4c-0.4,0.4-1.1,1.1-1.5,1.6c0.4,0.3,1.3,0.6,2,0.8c-0.3,0.5-0.8,1.5-0.9,2c0.8,0.1,1.6,0.1,2.2,0.1
	c-0.1,0.7,0,1.5,0,2.1c0.7-0.1,1.5-0.4,2-0.7c0.1,0.5,0.4,1.3,0.6,1.7c0.7-0.6,1.6-0.9,2.4-0.8c1.7,0.3,2.2,2.1,2.2,2.1l0-5.2v-0.6
	c0-0.3,0.2-0.5,0.5-0.5h11.7c0.3,0,0.5,0.2,0.5,0.5v0.6l0,5.2c0,0,0.5-1.7,2.2-2.1c0.8-0.2,1.7,0.1,2.4,0.8c0.2-0.4,0.5-1.3,0.6-1.7
	c0.5,0.3,1.3,0.6,2,0.7c0.1-0.6,0.1-1.4,0-2.1c0.7,0.1,1.5,0.1,2.2-0.1c-0.1-0.6-0.6-1.5-0.9-2c0.7-0.2,1.6-0.5,2-0.8
	c-0.4-0.5-1-1.2-1.5-1.6c0.5-0.4,1.3-1,1.7-1.4c-0.5-0.4-1.3-0.7-2-1C43.1,23.5,43.2,21.6,43.1,20.8L43.1,20.8L43.1,20.8z
	 M21.8,14.7l-0.1,0.2c2.1,0,4-0.7,4.6-3.2h-1.6C24.4,13.5,23.4,14.7,21.8,14.7L21.8,14.7L21.8,14.7z M12.9,10.7c0,0,1.1,0.3,1.6,1.8
	c0.4,1.6,1.5,2.3,2.7,2.3l-0.1-0.2c-0.7-0.1-1.6-1-1.8-2.8c-0.2-1.8-0.6-2-0.6-2C14.2,9.6,13.1,10.4,12.9,10.7L12.9,10.7L12.9,10.7z
	 M9.6,11.4c0.9,0,1.6,0.3,2.7-0.8c1.4-1.3,2-1.1,2-1.1c-0.7-0.5-1.7-0.7-2-0.4c-0.3,0.3-0.8,1-1.6,1.5c-1.1,0.7-2.2,0.5-2.3,1.2h0
	C8.6,11.8,8.7,11.4,9.6,11.4L9.6,11.4L9.6,11.4z M10.5,15.6c0.6,0.6,0.6,1.7,0.6,1.7s0.7-1.2,0.1-2.5c-0.6-1.3-1.7-2.3-0.6-3.1
	c-0.7,0-1.4-0.2-1.8,0.3c-0.1,0.1-0.2,0.5,0.1,1c0.4,0.7,1.5,2.2,0.6,3.2C10.3,16.1,10.5,15.6,10.5,15.6L10.5,15.6L10.5,15.6z
	 M17.5,14.9h3.9c0,0,0.1-0.2,0.2-0.6h-4.3C17.4,14.6,17.5,14.9,17.5,14.9L17.5,14.9z M19.8,9.4c0-0.2-0.2-0.4-0.4-0.4
	c-0.2,0-0.4,0.2-0.4,0.4c0,0.2,0.2,0.4,0.4,0.4C19.6,9.8,19.8,9.6,19.8,9.4C19.8,9.4,19.8,9.4,19.8,9.4z M21.7,13.8
	c0.2-0.5,0.4-1.3,0.4-1.7c0-0.7-0.4-1.5-1.7-1.7c0,0.8-0.4,2.9-0.9,2.9h-0.1c-0.5,0-0.9-2-0.9-2.9c-1.4,0.2-1.7,1-1.7,1.7
	c0,0.4,0.2,1.2,0.4,1.7H21.7L21.7,13.8L21.7,13.8z M19.4,12.8c0.3,0,0.5-1.3,0.5-2c0-0.4-0.2-0.6-0.5-0.6c-0.3,0-0.5,0.2-0.5,0.6
	C19,11.4,19.2,12.8,19.4,12.8L19.4,12.8L19.4,12.8z M19.2,8.5h0.5l-0.1-0.6l0.6,0.1V7.4l-0.6,0.1l0.1-0.6h-0.5l0.1,0.6l-0.6-0.1v0.5
	l0.6-0.1L19.2,8.5L19.2,8.5L19.2,8.5z M29.4,11.7h-1.6c0.5,2.4,2.5,3.2,4.6,3.2l-0.1-0.2C30.7,14.7,29.7,13.5,29.4,11.7L29.4,11.7
	L29.4,11.7z M37,14.9c1.1,0,2.2-0.8,2.7-2.3c0.4-1.6,1.6-1.8,1.6-1.8c-0.2-0.3-1.4-1.1-1.8-0.8c0,0-0.4,0.2-0.6,2
	c-0.2,1.7-1.1,2.7-1.8,2.8L37,14.9L37,14.9L37,14.9z M41.8,10.6c1.2,1.1,1.8,0.8,2.7,0.8c0.9,0,1,0.4,1,0.4h0
	c-0.1-0.7-1.2-0.5-2.3-1.2c-0.8-0.5-1.2-1.2-1.6-1.5c-0.3-0.3-1.3-0.1-2,0.4C39.7,9.5,40.4,9.3,41.8,10.6L41.8,10.6L41.8,10.6z
	 M45.2,12c-0.3-0.5-1.1-0.3-1.8-0.3c1.1,0.8,0,1.8-0.6,3.1c-0.6,1.3,0.1,2.5,0.1,2.5s0.1-1.2,0.6-1.7c0,0,0.2,0.5,0.8,0.6
	c-0.9-1,0.2-2.5,0.6-3.2C45.4,12.5,45.3,12.2,45.2,12L45.2,12L45.2,12z M36.6,14.9c0,0,0.1-0.2,0.2-0.6h-4.3
	c0.1,0.3,0.2,0.6,0.2,0.6H36.6C36.6,14.9,36.6,14.9,36.6,14.9z M35,9.4C35,9.2,34.9,9,34.7,9c-0.2,0-0.4,0.2-0.4,0.4
	c0,0.2,0.2,0.4,0.4,0.4C34.9,9.8,35,9.6,35,9.4C35,9.4,35,9.4,35,9.4z M37,13.8c0.2-0.5,0.4-1.3,0.4-1.7c0-0.7-0.4-1.5-1.7-1.7
	c0,0.9-0.4,2.9-0.9,2.9h-0.1c-0.5,0-0.9-2.1-0.9-2.9c-1.3,0.2-1.7,1-1.7,1.7c0,0.4,0.2,1.2,0.4,1.7L37,13.8L37,13.8L37,13.8z
	 M34.7,12.8c0.3,0,0.5-1.3,0.5-2c0-0.4-0.2-0.6-0.5-0.6c-0.3,0-0.5,0.2-0.5,0.6C34.2,11.4,34.4,12.8,34.7,12.8L34.7,12.8z M34.4,8.5
	h0.5l-0.1-0.6l0.6,0.1V7.4l-0.6,0.1l0.1-0.6h-0.5l0.1,0.6l-0.6-0.1v0.5l0.6-0.1L34.4,8.5L34.4,8.5L34.4,8.5z M9.2,23.8
	c-1,0-2.8,0.2-3.7,0.5c0.6,0.7,2.2,1.8,3.2,2.2c-0.7,0.3-2.1,1-2.6,1.5c0.7,0.4,2.3,0.9,3,1.1c-0.4,0.4-1.3,1.4-1.6,1.9
	c0.6,0.2,1.9,0.4,2.7,0.4C9.9,32,9.6,33,9.5,33.6c0.4,0,1.7,0,2.4-0.2c-0.1,0.5,0,1.5,0.1,1.9c0.6-0.1,1.6-0.4,2-0.5
	c0.1,0.5,0.6,1.5,0.7,1.8c0.5-0.1,1.1-0.3,1.6-0.6c0.1,0.4,0.5,1,0.6,1.1c1.5-1.5,3.7-0.3,3.7,1.3c-0.2,1.1-1.7,1-2.5,1.5
	c-1.1,0.7-0.9,2.2-2,2.5c1,0.6,1.3-0.6,2.4-0.6c-0.1,0.7-0.1,1.8,0,2.3c0.4-0.3,1.1-0.6,1.5-0.6c-0.1,0.4-0.2,1.3,0,1.8
	c0.3-0.2,1.3-1.1,3.8-0.5c0.3,0.1-1.7,0-1.4,0.6c0.2,0.5,0.3,0.9,0,1.6c0.1,0,0.2,0.1,0.4,0.1c0.6,0,1.3-0.3,1.6-0.8
	c0.2,0.2,0.2,1.4-0.5,1.6c0.8,0.1,1.4-0.6,1.5-1c0,0,0.4,0.9,0.9,1.2c0.3-0.1,0.8-0.6,1-1.1c0.2,0.5,0.7,1,1,1.1
	c0.5-0.3,0.9-1.2,0.9-1.2c0.1,0.4,0.7,1,1.5,1c-0.7-0.3-0.7-1.5-0.5-1.6c0.3,0.5,1,0.8,1.6,0.8c0.1,0,0.3,0,0.4-0.1
	c-0.2-0.7-0.2-1.1,0-1.6c0.2-0.6-1.7-0.6-1.4-0.6c2.5-0.6,3.6,0.3,3.8,0.5c0.1-0.6,0.1-1.5,0-1.8c0.4,0,1,0.3,1.5,0.6
	c0.1-0.5,0.1-1.7,0-2.3c1.1,0,1.4,1.3,2.4,0.6c-1.1-0.2-0.9-1.8-2-2.5c-0.8-0.5-2.3-0.4-2.5-1.5c0-1.6,2.2-2.9,3.7-1.3
	c0.1-0.1,0.4-0.7,0.6-1.1c0.5,0.2,1.1,0.5,1.6,0.6c0.2-0.2,0.6-1.3,0.7-1.8c0.4,0.2,1.4,0.4,2,0.5c0.1-0.4,0.1-1.4,0.1-1.9
	c0.7,0.1,2,0.2,2.4,0.2C44.5,33,44.2,32,44,31.5c0.8,0,2.1-0.2,2.7-0.4c-0.3-0.5-1.2-1.6-1.6-1.9c0.7-0.2,2.3-0.7,3-1.1
	c-0.6-0.5-1.9-1.2-2.6-1.5c1-0.4,2.5-1.5,3.2-2.2c-0.9-0.3-2.7-0.5-3.7-0.5c2.1-1.4,2.1-4.5,1.5-6.2c-0.4,1-1.7,2.7-2.6,3.6
	c0.1,0.9-0.2,2.4-0.7,3.3c0.7,0.3,1.5,0.6,2.1,1.1c-0.4,0.5-1.2,1.2-1.7,1.6c0.4,0.5,1.2,1.3,1.5,1.8c-0.5,0.4-1.5,0.8-2.1,1
	c0.3,0.5,0.6,1.5,0.7,2.2c-0.6,0.1-1.4,0.2-2.3,0.2c0,0.7,0,1.7-0.2,2.3c-0.8-0.1-1.8-0.4-2.2-0.6c-0.2,0.9-0.8,1.8-0.8,1.8
	c-2.5-2.8-4.8-0.2-4.8,2.3v3.3c0,1.6-0.5,2.3-1.9,2.3h-1.8c-1.1,0-2.1,0.5-2.6,1.4c-0.5-0.9-1.4-1.4-2.6-1.4h-1.8
	c-1.4,0-1.9-0.7-1.9-2.3V38c0-2.4-2.3-5.1-4.8-2.3c0,0-0.6-0.9-0.8-1.8c-0.4,0.2-1.4,0.5-2.2,0.6c-0.1-0.6-0.2-1.6-0.2-2.3
	c-0.9,0-1.7-0.1-2.3-0.2c0.1-0.7,0.5-1.7,0.7-2.2c-0.5-0.2-1.6-0.6-2.1-1c0.3-0.5,1.1-1.3,1.5-1.8c-0.5-0.4-1.3-1.1-1.7-1.6
	c0.6-0.4,1.4-0.8,2.1-1.1c-0.5-0.9-0.8-2.4-0.7-3.3c-0.9-0.9-2.2-2.6-2.6-3.6C7.1,19.3,7.1,22.4,9.2,23.8L9.2,23.8L9.2,23.8z
	 M3.5,39.7l-0.2,0.2c0,0,0.4,0.5,0.7,0.3c0.2-0.3-0.3-0.7-0.3-0.7L3.5,39.7L3.5,39.7L3.5,39.7z"/>
</svg>
